<?xml version="1.0" standalone="no"?>
<!DOCTYPE svg PUBLIC "-//W3C//DTD SVG 20010904//EN"
 "http://www.w3.org/TR/2001/REC-SVG-20010904/DTD/svg10.dtd">
<svg version="1.0" xmlns="http://www.w3.org/2000/svg"
 width="900.000000pt" height="900.000000pt" viewBox="0 0 900.000000 900.000000"
 preserveAspectRatio="xMidYMid meet">
<metadata>
Created by potrace 1.16, written by Peter Selinger 2001-2019
</metadata>
<g transform="translate(0.000000,900.000000) scale(0.100000,-0.100000)"
fill="#000000" stroke="none">
<path d="M2720 7914 c-204 -59 -283 -83 -288 -88 -3 -4 15 -28 41 -54 26 -26
47 -51 47 -55 0 -8 -30 -5 -125 13 -27 5 -79 14 -115 21 -36 6 -73 13 -82 16
-31 8 -19 -12 23 -37 38 -24 70 -60 51 -60 -4 0 -61 7 -127 15 -65 8 -121 12
-124 10 -3 -3 15 -25 38 -49 24 -24 41 -48 37 -54 -3 -5 -31 -12 -63 -15 -59
-6 -133 -29 -213 -65 -70 -31 -76 -32 -132 -18 -142 36 -185 40 -279 27 -94
-13 -203 -44 -285 -81 -27 -12 -65 -29 -84 -38 -38 -17 -80 -50 -80 -64 0 -4
40 -8 89 -8 123 0 363 -26 503 -55 106 -22 248 -68 353 -114 50 -22 155 -54
160 -49 2 2 -3 53 -11 113 -8 61 -12 115 -10 121 2 6 26 18 53 28 26 10 62 24
78 31 17 7 48 21 70 30 l40 16 -39 20 c-22 10 -46 19 -53 19 -7 0 -13 4 -13 9
0 17 33 21 89 12 31 -5 85 -12 120 -16 l63 -6 -6 24 -6 25 198 6 c108 3 238
10 287 15 177 18 225 24 225 30 0 3 -34 40 -75 81 -73 73 -93 106 -57 96 9 -2
78 -8 152 -11 74 -4 144 -8 155 -10 134 -15 401 -59 510 -84 22 -5 56 -12 75
-16 143 -27 223 -52 269 -85 36 -27 41 -35 59 -117 48 -208 65 -348 53 -435
-5 -40 -12 -107 -15 -148 -4 -41 -10 -118 -16 -170 -12 -120 -12 -140 -1 -140
5 0 64 52 131 115 126 117 214 175 271 175 31 0 66 -37 75 -79 30 -150 69
-187 187 -179 57 3 76 11 183 72 239 138 343 188 454 218 40 11 262 38 270 33
3 -2 48 -8 100 -14 52 -6 105 -14 118 -17 39 -11 25 18 -35 78 -157 152 -344
228 -563 228 -145 0 -279 -29 -412 -89 -27 -11 -68 -30 -93 -41 -195 -87 -378
-62 -442 59 -47 90 -18 294 40 277 213 -65 420 -56 662 26 76 26 105 41 144
74 41 34 39 47 -3 29 -27 -12 -50 -12 -117 -4 -46 5 -120 14 -164 19 -277 32
-312 38 -321 52 -9 14 0 19 58 35 29 8 69 19 88 25 145 40 434 50 655 23 225
-28 330 -62 456 -146 95 -64 199 -196 199 -253 0 -32 30 -46 98 -46 92 -1 143
-28 206 -111 44 -56 53 -64 80 -62 42 3 266 32 342 44 104 16 309 11 404 -10
94 -21 228 -64 315 -101 92 -40 318 -80 331 -59 3 5 -8 38 -24 72 -39 83 -117
161 -202 200 -60 29 -75 31 -205 35 -81 2 -178 -1 -230 -8 -152 -21 -305 -24
-345 -7 -19 9 -85 64 -146 124 -146 145 -217 193 -295 200 -77 7 -81 31 -9 57
28 10 50 22 50 27 0 5 -60 10 -132 11 l-133 3 2 41 3 40 -104 0 c-57 -1 -108
3 -112 7 -5 4 4 18 20 30 27 22 27 23 9 39 -10 9 -38 25 -63 36 -68 28 -112
38 -335 74 -106 17 -569 18 -645 1 -30 -7 -84 -17 -120 -23 -236 -39 -557
-135 -679 -202 -33 -19 -35 -19 -117 1 -46 12 -121 30 -166 40 -279 66 -394
96 -527 136 -218 64 -293 75 -516 74 -124 -1 -206 -6 -235 -15z"/>
<path d="M3964 7346 c0 -55 -6 -128 -13 -161 -18 -85 -70 -253 -94 -300 -30
-62 -121 -195 -163 -240 -20 -22 -55 -64 -78 -94 l-40 -53 39 -32 c138 -109
264 -291 315 -455 20 -64 70 -107 149 -130 36 -11 79 -21 96 -23 26 -3 30 0
36 32 4 19 12 53 18 75 43 161 51 252 25 303 -19 39 -43 41 -115 8 -59 -28
-77 -24 -107 21 -14 23 -17 51 -17 188 1 88 6 194 12 235 28 180 36 264 37
400 1 158 -10 218 -52 282 -41 63 -47 56 -48 -56z"/>
<path d="M791 7278 c-24 -12 -74 -51 -111 -88 -165 -163 -204 -380 -103 -574
67 -131 126 -185 307 -282 60 -33 125 -73 143 -90 29 -28 33 -37 33 -85 0 -79
-38 -201 -111 -356 -16 -35 -42 -91 -58 -125 -43 -91 -71 -166 -71 -187 0 -11
20 -34 49 -54 69 -50 75 -75 67 -266 -4 -86 -11 -176 -16 -201 -14 -70 -12
-408 3 -455 15 -49 41 -98 60 -113 18 -15 22 -9 107 153 34 66 71 134 80 150
10 17 42 77 73 135 30 58 69 130 86 162 30 55 31 58 22 135 -12 117 -14 745
-1 838 19 145 70 312 123 405 11 19 25 44 31 55 21 39 71 101 148 183 43 46
78 89 78 95 -2 74 -156 221 -305 292 -82 39 -248 30 -320 -18 -161 -107 -187
-256 -74 -417 22 -31 39 -61 39 -67 0 -17 -128 38 -198 86 -68 46 -113 98
-143 167 -18 40 -21 62 -17 143 4 102 17 140 111 306 59 105 55 115 -32 73z"/>
<path d="M6762 6808 c-59 -240 -30 -372 112 -514 71 -70 150 -117 296 -174
118 -46 116 -45 148 -135 34 -98 87 -286 103 -370 43 -216 60 -370 50 -445 -5
-36 -15 -105 -21 -155 -11 -81 -60 -245 -104 -349 -22 -52 -21 -72 13 -190 50
-171 54 -209 48 -423 -4 -152 -11 -231 -31 -341 -21 -113 -24 -151 -16 -180 5
-20 14 -56 20 -79 6 -24 15 -43 20 -43 4 0 18 29 29 65 21 65 30 84 103 208
90 154 108 222 108 402 0 126 -5 174 -31 285 -15 64 -38 128 -60 172 -15 30
-11 51 9 43 9 -4 30 -10 46 -13 l29 -5 -6 309 c-13 596 -81 936 -234 1170 -19
28 -31 57 -28 66 3 8 38 28 78 43 155 59 224 94 292 148 113 92 167 182 180
304 7 59 7 60 -21 71 -80 32 -134 36 -449 37 -298 1 -326 2 -405 23 -47 12
-98 29 -115 36 -16 8 -51 23 -77 35 -26 11 -50 25 -53 31 -12 20 -23 9 -33
-32z"/>
<path d="M2770 6799 c-72 -14 -167 -67 -225 -125 -111 -111 -169 -235 -224
-484 -57 -259 -61 -274 -98 -331 -29 -45 -84 -85 -198 -144 -114 -59 -121 -59
-129 8 -9 77 -7 202 3 250 5 23 15 71 22 107 19 107 59 252 84 305 70 151 136
292 145 307 20 36 12 48 -31 48 -82 0 -240 -115 -283 -205 -17 -36 -17 -37 3
-51 23 -17 27 -56 11 -99 -12 -32 -82 -99 -121 -115 -16 -7 -29 -15 -29 -19 0
-3 16 -16 35 -29 19 -12 35 -26 35 -31 0 -5 -36 -49 -80 -96 -87 -93 -113
-140 -108 -193 l3 -34 47 36 c53 40 68 44 68 18 0 -26 -36 -133 -69 -205 -16
-34 -33 -86 -40 -115 -13 -63 -14 -389 -2 -482 5 -36 12 -109 16 -162 7 -101
15 -115 46 -80 35 38 98 92 108 92 14 0 15 15 -10 -185 -17 -139 -19 -201 -14
-340 7 -206 32 -397 66 -510 143 -481 391 -834 784 -1117 136 -98 267 -178
335 -206 77 -31 146 -68 176 -94 31 -27 34 -35 34 -83 0 -42 -6 -60 -30 -93
-30 -42 -31 -42 -93 -42 -104 0 -202 38 -354 136 -46 30 -86 54 -89 54 -3 0
-19 9 -35 21 -16 11 -36 19 -45 17 -8 -2 -28 -32 -44 -68 -16 -35 -33 -66 -38
-68 -5 -1 -15 28 -21 65 -17 96 -40 169 -61 196 -18 22 -19 22 -25 2 -18 -54
-28 -75 -35 -75 -17 0 -49 53 -65 108 -31 105 -47 131 -140 223 -51 50 -105
108 -121 130 -28 37 -32 39 -85 39 -91 0 -148 23 -206 81 -65 65 -142 218
-174 342 -32 129 -59 281 -59 340 0 26 -4 47 -8 47 -5 0 -43 -30 -86 -67 -59
-50 -80 -63 -86 -53 -5 8 -8 76 -7 152 l2 138 -52 0 c-69 0 -94 13 -116 61
-18 38 -47 53 -47 24 0 -14 -28 -85 -51 -127 -5 -10 -9 -46 -9 -81 0 -54 5
-71 35 -121 31 -52 99 -125 117 -126 16 0 70 -55 82 -84 7 -17 18 -62 25 -101
39 -226 90 -362 236 -630 53 -98 49 -95 120 -82 33 7 98 12 145 12 72 0 94 -4
145 -28 78 -36 111 -69 130 -128 13 -39 15 -61 7 -111 -11 -75 -7 -84 76 -154
202 -173 423 -309 609 -373 53 -19 136 -40 223 -58 27 -5 43 -11 103 -36 68
-30 172 -142 230 -247 13 -25 38 -70 54 -100 17 -30 43 -84 58 -120 15 -36 38
-89 51 -118 13 -29 24 -56 24 -60 0 -5 9 -27 20 -50 11 -22 20 -45 20 -50 0
-19 109 -274 144 -336 59 -105 168 -195 301 -246 167 -65 604 -91 772 -46 180
48 344 202 452 421 75 152 131 374 131 516 l0 79 53 26 c84 43 151 101 265
232 60 69 184 228 243 312 21 30 57 82 80 115 181 258 255 305 609 387 295 68
337 86 391 164 16 24 34 44 39 44 13 0 13 -36 1 -78 -12 -39 -5 -40 34 -4 49
44 73 85 90 147 18 70 21 74 39 50 13 -18 15 -18 45 12 27 28 31 38 31 87 0
30 4 58 10 61 10 6 14 -6 10 -38 -4 -39 35 -11 81 58 43 63 53 95 50 146 -1 9
-20 45 -44 81 -24 35 -46 72 -50 81 -8 21 -21 21 -88 0 -88 -28 -147 -73 -283
-217 -117 -125 -199 -193 -266 -223 -67 -29 -88 -34 -159 -40 -56 -4 -93 -1
-141 12 -115 31 -150 38 -155 34 -2 -3 -11 -29 -19 -59 -49 -180 -72 -250 -81
-250 -6 0 -37 23 -68 51 -56 50 -87 58 -87 24 0 -8 -4 -23 -9 -33 -6 -9 -26
-51 -46 -92 -68 -138 -188 -300 -425 -576 -47 -54 -99 -116 -114 -137 -43 -56
-65 -48 -105 36 -15 32 -17 45 -8 70 11 31 128 263 179 357 60 108 88 160 128
240 43 88 46 95 75 170 30 78 53 171 70 285 14 90 10 145 -16 240 -26 94 -78
195 -99 195 -5 0 -17 -14 -25 -30 -9 -17 -30 -44 -47 -60 -28 -27 -38 -30 -94
-30 -70 0 -121 18 -227 82 -37 22 -70 38 -73 35 -3 -3 12 -32 34 -64 55 -82
62 -97 72 -160 23 -140 -61 -399 -195 -602 -49 -75 -71 -98 -83 -87 -4 4 -6
114 -4 244 4 234 -6 345 -38 452 -11 39 -27 67 -33 60 -2 -3 -30 -38 -61 -77
-32 -40 -62 -73 -66 -73 -8 0 -14 21 -26 95 -7 50 -31 105 -49 111 -7 3 -37
-11 -65 -30 -60 -41 -61 -41 -129 -19 -51 16 -52 16 -76 -7 -23 -22 -25 -22
-63 -7 -34 14 -42 14 -67 1 -50 -26 -86 -18 -129 27 -64 65 -79 57 -133 -78
-25 -62 -49 -113 -53 -113 -5 0 -47 54 -95 119 -96 133 -112 151 -119 130 -3
-8 -11 -34 -19 -59 -8 -25 -26 -74 -40 -110 -49 -126 -60 -198 -54 -350 7
-196 -5 -266 -34 -192 -6 15 -36 79 -66 142 -88 183 -113 274 -113 405 0 80
33 197 70 247 11 15 20 29 20 32 0 2 -23 21 -51 42 -53 39 -115 115 -142 174
-31 71 -40 139 -33 254 5 61 11 155 14 209 l7 99 -33 13 c-18 8 -35 21 -38 29
-8 20 13 82 42 128 13 21 24 40 24 43 0 3 -18 5 -40 5 -76 0 -78 64 -4 154 24
30 44 59 44 65 0 6 -16 17 -35 25 -43 18 -45 39 -9 109 30 61 67 114 175 249
107 135 175 236 184 277 l7 33 -63 -6 c-35 -4 -82 -16 -105 -27 -23 -12 -100
-80 -173 -153 -143 -144 -188 -174 -276 -183 -49 -5 -59 -3 -80 17 -21 20 -25
33 -25 82 0 40 6 67 20 90 27 45 25 63 -10 88 -35 25 -45 42 -54 93 -6 30 -4
37 9 37 9 0 21 -5 28 -10 23 -20 137 -100 142 -100 15 0 -1 24 -51 76 -78 81
-102 138 -93 216 9 74 43 121 119 162 64 35 163 45 224 24 46 -15 60 -38 23
-38 -20 0 -28 -7 -37 -34 -18 -55 -30 -59 -88 -31 -68 33 -86 32 -116 -8 -61
-80 -56 -191 12 -247 57 -47 153 -62 236 -38 73 22 136 109 136 190 0 38 12
68 25 68 8 0 26 -25 40 -55 35 -70 47 -80 82 -67 69 27 114 33 151 21 60 -20
90 -49 192 -193 14 -20 30 -36 37 -36 16 0 43 126 43 201 0 53 -5 70 -31 110
-45 71 -126 126 -249 169 -111 39 -128 62 -58 80 57 16 114 5 198 -36 88 -42
103 -43 94 -6 -13 53 -63 153 -101 199 -75 92 -210 155 -393 183 -175 27 -223
45 -247 95 -41 87 44 160 235 200 35 8 66 16 69 18 6 7 -113 72 -188 104 -173
71 -334 96 -459 72z m-584 -1625 c27 -132 158 -328 297 -445 67 -57 124 -89
224 -128 106 -41 173 -80 173 -100 0 -11 -6 -50 -14 -88 -7 -37 -12 -90 -11
-118 12 -185 19 -256 40 -380 13 -77 31 -169 40 -205 9 -36 20 -81 25 -100 5
-19 18 -71 30 -115 21 -78 38 -157 39 -182 2 -35 -97 8 -157 69 -72 72 -107
167 -158 418 -37 188 -45 216 -88 309 -6 14 -28 43 -49 65 l-38 41 -19 -25
c-20 -26 -32 -102 -30 -178 2 -64 2 -64 -19 -53 -44 24 -121 244 -121 345 0
39 -3 46 -20 46 -16 0 -20 -7 -20 -34 0 -66 -26 -54 -55 24 -9 25 -20 54 -25
65 -4 11 -13 35 -20 53 -7 17 -15 32 -19 32 -3 0 -17 -25 -31 -55 -26 -57 -28
-59 -46 -47 -35 23 -42 81 -20 175 12 48 12 57 1 57 -8 0 -17 -5 -20 -10 -18
-29 -25 16 -25 154 0 196 23 327 76 439 26 54 45 44 60 -29z m1782 -2178 c16
-8 55 -43 87 -79 73 -79 89 -87 160 -87 58 0 68 4 208 78 62 34 88 42 129 42
77 0 110 -42 154 -198 32 -113 50 -645 26 -802 -6 -41 -16 -129 -23 -195 -6
-66 -15 -146 -19 -178 -4 -32 -4 -60 0 -62 4 -2 23 9 43 26 41 34 91 131 134
264 17 50 40 120 51 156 30 92 51 139 61 139 16 0 32 -119 37 -277 8 -240 -18
-361 -106 -481 -40 -55 -92 -78 -195 -85 -54 -4 -102 -15 -150 -34 -38 -16
-90 -35 -115 -42 -25 -7 -55 -17 -68 -22 -32 -13 -202 -11 -243 2 -60 19 -85
30 -166 76 -39 22 -49 23 -91 14 -47 -9 -103 -3 -152 17 -93 38 -158 217 -147
402 6 91 25 242 32 249 10 9 33 -22 45 -61 7 -24 16 -54 20 -68 4 -14 13 -50
20 -80 29 -125 80 -204 155 -239 47 -22 65 -49 65 -98 0 -22 3 -24 27 -18 15
3 43 20 64 36 37 29 63 36 73 20 9 -14 94 -51 118 -51 12 0 45 14 75 30 l53
30 60 -30 59 -30 87 55 c49 30 92 55 96 55 4 0 8 5 8 11 0 9 -38 10 -139 6
-135 -5 -140 -4 -175 19 -42 29 -64 29 -136 4 -68 -24 -147 -26 -178 -4 -51
35 -163 341 -202 549 -4 22 -13 65 -19 95 -44 203 -52 362 -26 505 21 119 45
212 69 270 34 80 75 101 134 71z m-43 -2145 c33 -16 88 -38 123 -50 76 -25
249 -45 317 -37 28 4 75 9 105 12 72 7 265 58 358 95 34 14 45 2 39 -43 -12
-87 -128 -152 -342 -192 -100 -19 -347 -15 -420 6 -79 23 -137 54 -178 93 -49
46 -96 145 -69 145 4 0 34 -13 67 -29z"/>
<path d="M5670 6582 c-68 -33 -93 -55 -132 -110 -38 -55 -33 -72 21 -65 91 12
267 -42 391 -122 128 -82 220 -202 220 -287 0 -85 -48 -138 -125 -138 -54 0
-83 20 -165 111 -96 106 -118 119 -200 119 -55 0 -69 -4 -92 -25 -14 -13 -29
-32 -32 -42 -5 -16 -20 -18 -133 -19 -157 0 -193 -15 -282 -110 -33 -35 -63
-64 -66 -64 -17 0 0 55 33 106 44 68 109 115 193 140 47 15 66 15 147 4 51 -7
95 -10 99 -7 3 4 -4 27 -16 52 -11 24 -21 48 -21 53 0 18 -65 84 -98 101 -21
10 -64 23 -97 30 -185 40 -259 79 -311 167 -9 16 -18 13 -97 -40 -92 -60 -166
-96 -198 -96 -31 0 -68 29 -95 76 -14 24 -29 44 -33 44 -6 0 -19 -27 -41 -90
-6 -19 -16 -44 -20 -55 -4 -11 -18 -47 -30 -80 -12 -33 -32 -87 -45 -120 -12
-33 -33 -87 -45 -120 -12 -33 -26 -69 -30 -80 -4 -11 -18 -47 -30 -80 -12 -33
-31 -82 -41 -109 -11 -27 -17 -52 -14 -54 3 -3 22 11 43 31 35 34 43 37 94 37
53 0 59 -3 100 -42 56 -55 93 -133 163 -343 31 -94 63 -186 72 -205 14 -31 17
-32 23 -14 5 11 11 51 15 89 5 62 20 138 43 235 22 86 76 166 125 183 10 4 35
0 55 -9 37 -15 37 -15 64 18 15 18 32 44 38 58 6 14 19 31 29 37 17 11 19 7
25 -37 12 -93 67 -161 150 -185 63 -19 91 -19 147 0 90 31 139 109 125 198 -7
43 -50 116 -69 118 -29 3 -55 -4 -94 -26 -47 -26 -49 -25 -78 38 -13 28 -22
36 -35 32 -28 -9 -33 12 -8 29 65 41 184 31 263 -23 82 -54 110 -101 110 -181
0 -77 -22 -122 -109 -215 -31 -33 -52 -61 -47 -63 33 -11 227 114 298 192 29
31 56 56 61 56 18 0 133 -130 152 -172 22 -49 24 -68 9 -100 -21 -47 -123 -97
-279 -136 -130 -32 -287 -58 -322 -53 -28 4 -21 -25 11 -46 16 -10 81 -57 143
-105 176 -134 260 -168 416 -168 123 0 162 16 263 106 68 60 77 50 50 -56 -73
-289 -371 -672 -609 -781 -50 -23 -77 -29 -132 -29 -110 0 -158 30 -263 160
l-28 35 6 -75 c14 -190 21 -413 15 -495 -4 -49 -5 -93 -3 -96 1 -4 22 -3 45 3
186 41 245 40 320 -10 86 -56 161 -198 198 -372 12 -56 9 -176 -5 -219 -17
-50 15 -12 116 139 57 84 109 153 114 152 10 -3 10 -9 -1 -101 -4 -32 -3 -52
2 -50 10 4 52 50 208 222 43 48 82 87 87 87 8 0 7 -26 -7 -117 -12 -83 66 -6
176 172 83 134 136 205 155 205 66 0 54 -171 -17 -247 -31 -33 -17 -37 38 -11
68 31 126 71 193 134 96 88 111 117 127 241 38 298 58 358 146 442 l47 45 -50
70 c-28 39 -85 122 -127 184 -85 128 -80 128 -118 -1 -41 -138 -88 -223 -169
-303 -64 -64 -159 -124 -196 -124 -18 0 -5 46 39 141 89 189 171 442 216 674
39 197 41 212 40 505 0 286 -1 298 -26 380 -85 285 -248 509 -439 603 -42 20
-79 37 -83 37 -3 0 -35 14 -71 30 -89 41 -98 40 -70 -10 8 -14 14 -30 15 -37
0 -12 -92 -43 -129 -43 -11 0 -62 21 -113 48 -154 79 -219 88 -308 44z"/>
<path d="M3627 4983 c-52 -53 -150 -257 -187 -388 -61 -216 -64 -233 -64 -435
0 -155 3 -205 16 -245 67 -202 99 -245 182 -245 19 0 44 -9 57 -19 24 -20 24
-20 4 -34 -11 -8 -31 -24 -45 -36 l-25 -20 35 -1 c19 0 139 7 265 15 224 14
396 12 885 -10 l125 -6 -54 50 -55 49 92 95 c59 61 101 115 117 149 40 86 31
183 -24 248 l-29 35 -46 -22 c-26 -13 -49 -23 -51 -23 -12 0 -3 27 16 50 41
51 116 166 130 200 31 78 12 214 -39 273 -24 27 -29 21 -35 -37 -7 -71 -39
-142 -85 -189 -43 -45 -140 -109 -198 -132 -37 -15 -45 -24 -79 -98 -69 -151
-78 -168 -94 -165 -9 2 -17 13 -19 25 -11 75 -143 113 -272 78 -30 -8 -56 -15
-57 -15 -9 0 0 47 17 90 21 53 18 73 -15 100 -16 13 -72 9 -236 -19 -37 -6
-55 -4 -88 12 -34 16 -100 81 -124 123 -7 13 46 154 59 157 5 1 13 -18 18 -42
12 -55 48 -82 128 -97 l60 -11 18 43 c23 53 48 67 106 59 l44 -6 0 54 c0 97
-42 176 -109 204 -30 13 -47 14 -104 4 -113 -19 -144 -15 -179 20 -30 29 -31
33 -25 97 3 37 9 75 12 85 11 28 -10 20 -48 -20z"/>
<path d="M4508 4814 c-31 -16 -79 -83 -96 -131 -34 -100 72 -223 192 -223 54
0 104 57 119 136 12 62 -36 184 -86 219 -27 19 -94 19 -129 -1z"/>
<path d="M1280 4678 c-7 -35 -14 -88 -17 -118 -2 -30 -8 -96 -13 -147 -14
-135 -13 -336 2 -331 6 2 16 13 22 23 6 11 35 51 63 89 91 122 113 232 72 357
-31 94 -85 189 -108 189 -5 0 -14 -28 -21 -62z"/>
</g>
</svg>
